<?xml version="1.0" encoding="UTF-8" standalone="no"?>
<!DOCTYPE svg PUBLIC "-//W3C//DTD SVG 1.1//EN" "http://www.w3.org/Graphics/SVG/1.1/DTD/svg11.dtd">
<svg width="100%" height="100%" viewBox="0 0 213 81" version="1.1" xmlns="http://www.w3.org/2000/svg" xmlns:xlink="http://www.w3.org/1999/xlink" xml:space="preserve" xmlns:serif="http://www.serif.com/" style="fill-rule:evenodd;clip-rule:evenodd;stroke-linejoin:round;stroke-miterlimit:2;">
    <path d="M13.2,66.4L21.1,66.4C21.3,66.4 21.5,66.2 21.7,65.8C22.3,62.4 22.9,59.4 23.2,56.8C23.3,56.5 23.5,56.3 23.8,56.3L26.3,56.3C26.7,56.3 27,56.5 27,56.7C27.2,58.2 27.5,60 28,62.1C28.6,64.9 29.1,66.3 29.5,66.3C30.7,66.3 32.1,66.3 33.7,66.4L37,66.4C37.4,66.4 37.6,66.3 37.6,66C36.3,57.1 34.9,48.2 33.6,39.4C31,22.5 29.4,14.1 28.9,14C26.6,13.9 24.3,13.9 22,14C21.4,14 19.7,22.5 16.9,39.4C15.4,48.2 14,56.9 12.5,65.7C12.2,66.2 12.5,66.4 13.2,66.4ZM23.8,48.3C24,46.9 24.1,45.5 24.3,44.1C24.6,42 24.9,41 25.1,41C25.3,41 25.7,43.4 26.3,48.3C26.3,48.5 26.1,48.6 25.7,48.6L24.5,48.6C24,48.5 23.8,48.4 23.8,48.3ZM48.5,66.4C52.1,66.4 54.8,65 56.7,62.1C58.4,59.6 59.2,56.4 59.2,52.4L59.2,47.5C59.2,46.8 58.9,46.4 58.2,46.4C56.6,46.4 54.5,46.3 51.8,46.3C51.2,46.3 50.9,46.7 50.9,47.5C50.9,47.6 50.9,48.1 51,48.8L51,50.6C51,55.1 50.2,57.3 48.5,57.3C47.6,57.3 46.9,56.6 46.4,55.1C46.1,54 45.9,52.9 45.9,51.7L45.9,33.5C45.9,25.9 46.8,22.1 48.5,22.1C49.8,22.1 50.6,23.2 50.9,25.4L50.9,29.9C50.9,30.5 51.3,31 51.9,31L52.1,31C51.9,31 52.8,31 55,31.1C56.1,31.2 57.1,31.1 58.2,31C58.8,30.9 59.2,30.4 59.2,29.8C59.2,29.1 59.3,28.1 59.3,26.9C59.4,23 58.7,19.8 57.3,17.5C55.5,14.4 52.6,12.9 48.6,12.9C44.8,12.9 42,14.6 40.1,18.1C38.9,20.2 38.3,22.5 38.2,24.9L38.2,49.6C38.2,54.7 38.8,58.5 39.9,60.9C41.4,64.7 44.3,66.4 48.5,66.4ZM62.5,66.2C67.9,66.6 73.3,66.6 78.6,66.3C79.3,66.3 79.6,66 79.6,65.5C79.6,63.8 79.5,61.2 79.5,57.7C79.5,57.1 79.2,56.9 78.5,56.9L71.5,56.9C70.7,56.8 70.3,56.5 70.3,55.9C70.2,51 70.2,47.6 70.4,45.8C70.5,45.2 70.7,44.8 71.2,44.8L77,44.8C77.5,44.8 77.7,44.5 77.7,43.9C77.7,43.5 77.7,42 77.8,39.6C77.9,37.5 77.9,36.1 77.9,35.3C77.9,34.9 77.6,34.5 77.1,34.5L77,34.5C75,34.6 73.1,34.6 71.1,34.4C70.7,34.4 70.3,34 70.3,33.6L70.3,28.2C70.3,25.4 70.4,23.9 70.4,23.7C70.4,23.2 70.7,23 71.4,23L78.7,23C79.2,23 79.4,22.7 79.4,22.2C79.4,21.7 79.4,20.4 79.5,18.4L79.5,14.9C79.5,14.4 79.2,14.1 78.5,14.1C71.2,14 65.8,14 62.6,14C62.3,13.9 61.9,14.2 61.9,14.5L61.9,64.7C61.8,65.7 62,66.1 62.5,66.2ZM94.9,66.1C96.7,66.3 98.5,66.2 100.3,66C101.4,65.9 102,65.4 102,64.7C102.2,56.7 102.2,50.1 102.2,44.8C102.2,44.2 102.4,43.8 102.8,43.8C104,43.7 105.1,43.7 106.3,43.8C106.8,43.9 107.1,44.3 107.1,44.8L107,64.5C107,65.6 107.3,66.1 107.8,66.1L110.4,66.1C111.4,66.2 112.4,66.1 113.4,65.9C114.2,65.8 114.6,65.4 114.6,64.7C114.6,63.5 114.7,55.9 114.8,41.9C114.9,28.7 114.9,19.9 114.9,15.4C114.9,14.6 114.7,14.2 114.3,14.2C111.5,14.2 109.2,14.2 107.4,14.3C107.1,14.3 107,14.5 107,15.1L107,32.7C107,33.4 106.8,33.8 106.3,33.8C105.2,34.1 104,34.1 102.8,33.9C102.6,33.9 102.4,33.7 102.4,33.5C102.3,33.2 102.3,33 102.3,32.7C102.2,30.4 102.2,27.3 102.3,23.2L102.3,15.3C102.4,14.8 102,14.3 101.5,14.2L94.3,14.2C93.9,14.2 93.7,14.6 93.7,15.3C93.4,37.5 93.4,53.9 93.8,64.6C93.9,65.6 94.3,66.1 94.9,66.1ZM127.6,66.8C134.4,66.8 137.8,63.2 137.8,56L137.8,25.6C137.8,21.1 136.8,17.9 134.9,16.1C133.4,14.7 130.9,14 127.6,14C124.5,14 122.2,14.8 120.6,16.4C118.7,18.4 117.8,21.7 117.8,26.3L117.8,56C117.8,59.7 118.5,62.4 120,64.1C121.6,65.9 124.1,66.8 127.6,66.8ZM126,27.3C126,24.7 126.7,23.5 128,23.5C129.2,23.5 129.8,24.8 129.8,27.3L129.8,53.2C129.8,55.4 129.2,56.5 128,56.5C127.4,56.6 126.9,56.4 126.5,56C126.2,55.6 126.1,54.8 126.1,53.3L126.1,27.3L126,27.3ZM138.2,21.8C138.2,22.4 138.5,22.7 139.2,22.7L143.9,22.7C144.4,22.7 144.7,23 144.7,23.6L144.8,65C144.8,65.7 145.1,66 145.6,66.1C148.9,66.4 151.4,66.4 152.9,66.2C153.4,66.2 153.6,65.8 153.6,65.1L153.5,23.7C153.5,23.1 153.9,22.7 154.8,22.7L157.1,22.7C158.1,22.7 158.7,22.8 159,22.8C159.7,22.8 160.1,22.5 160.1,21.9C160.1,20.1 160.1,18 160,15.3C160,14.5 159.6,14.1 159,14.1L139.2,14.1C138.6,14.1 138.2,14.7 138,15.8C137.8,16.9 137.8,18.1 137.9,19.2C138.2,21.4 138.2,22.3 138.2,21.8ZM161.7,66.2C167.1,66.6 172.5,66.6 177.8,66.3C178.5,66.3 178.8,66 178.8,65.5C178.8,63.8 178.7,61.2 178.7,57.7C178.7,57.1 178.4,56.9 177.7,56.9L170.7,56.9C169.9,56.8 169.5,56.5 169.5,55.9C169.4,51 169.4,47.6 169.6,45.8C169.7,45.2 169.9,44.8 170.4,44.8L176.2,44.8C176.7,44.8 176.9,44.5 176.9,43.9C176.9,43.5 176.9,42 177,39.6C177.1,37.5 177.1,36.1 177.1,35.3C177.1,34.9 176.8,34.5 176.3,34.5L176.2,34.5C174.2,34.6 172.3,34.6 170.3,34.4C169.9,34.4 169.5,34 169.5,33.6L169.5,28.2C169.5,25.4 169.6,23.9 169.6,23.7C169.6,23.2 169.9,23 170.6,23L177.9,23C178.4,23 178.6,22.7 178.6,22.2C178.6,21.7 178.6,20.4 178.7,18.4L178.7,14.9C178.7,14.4 178.4,14.1 177.7,14.1C170.4,14 165,14 161.8,14C161.5,13.9 161.1,14.2 161.1,14.5L161.1,64.7C161,65.7 161.2,66.1 161.7,66.2ZM182.2,66C184.7,66.2 187.2,66.2 189.7,66.1C195.6,66 198.4,66 198.2,66C199.3,66 199.8,65.6 199.9,64.8L199.9,57.7C199.9,56.9 199.4,56.5 198.4,56.5L191.7,56.5C190.8,56.5 190.3,55.9 190.2,55C190.1,50.9 190.1,43.6 190.1,33.1C190.2,23.4 190.2,17.6 190,15.8C190,15.4 190,15 190.1,14.6C190,14.1 189.7,13.9 189.1,14C185.4,14.1 183.1,14.1 182.2,14C181.4,13.9 181,14.4 181,15.6C180.9,26.5 181,42.8 181.2,64.5C181.2,65.4 181.6,65.9 182.2,66Z" style="fill-rule:nonzero;"/>
    <path d="M0,0L0,80.9L212.3,80.9L212.3,0L0,0ZM204.8,73.2L7.4,73.2L7.4,7.6L204.8,7.6L204.8,73.2Z" style="fill-rule:nonzero;"/>
</svg>
