<svg id="visual" viewBox="0 0 900 600" width="900" height="600" xmlns="http://www.w3.org/2000/svg" xmlns:xlink="http://www.w3.org/1999/xlink" version="1.1"><path d="M0 216L21.5 216.8C43 217.7 86 219.3 128.8 218.3C171.7 217.3 214.3 213.7 257.2 214.2C300 214.7 343 219.3 385.8 224.7C428.7 230 471.3 236 514.2 231.8C557 227.7 600 213.3 642.8 209.7C685.7 206 728.3 213 771.2 209.2C814 205.3 857 190.7 878.5 183.3L900 176L900 0L878.5 0C857 0 814 0 771.2 0C728.3 0 685.7 0 642.8 0C600 0 557 0 514.2 0C471.3 0 428.7 0 385.8 0C343 0 300 0 257.2 0C214.3 0 171.7 0 128.8 0C86 0 43 0 21.5 0L0 0Z" fill="#faf069"></path><path d="M0 183L21.5 177C43 171 86 159 128.8 149C171.7 139 214.3 131 257.2 136C300 141 343 159 385.8 167.3C428.7 175.7 471.3 174.3 514.2 173C557 171.7 600 170.3 642.8 174C685.7 177.7 728.3 186.3 771.2 182.3C814 178.3 857 161.7 878.5 153.3L900 145L900 0L878.5 0C857 0 814 0 771.2 0C728.3 0 685.7 0 642.8 0C600 0 557 0 514.2 0C471.3 0 428.7 0 385.8 0C343 0 300 0 257.2 0C214.3 0 171.7 0 128.8 0C86 0 43 0 21.5 0L0 0Z" fill="#90d735"></path><path d="M0 139L21.5 141C43 143 86 147 128.8 147.5C171.7 148 214.3 145 257.2 134.8C300 124.7 343 107.3 385.8 100.3C428.7 93.3 471.3 96.7 514.2 106C557 115.3 600 130.7 642.8 133.8C685.7 137 728.3 128 771.2 118.5C814 109 857 99 878.5 94L900 89L900 0L878.5 0C857 0 814 0 771.2 0C728.3 0 685.7 0 642.8 0C600 0 557 0 514.2 0C471.3 0 428.7 0 385.8 0C343 0 300 0 257.2 0C214.3 0 171.7 0 128.8 0C86 0 43 0 21.5 0L0 0Z" fill="#24c72c"></path><path d="M0 60L21.5 62.8C43 65.7 86 71.3 128.8 70.5C171.7 69.7 214.3 62.3 257.2 63.3C300 64.3 343 73.7 385.8 75.5C428.7 77.3 471.3 71.7 514.2 76.2C557 80.7 600 95.3 642.8 103.5C685.7 111.7 728.3 113.3 771.2 114.5C814 115.7 857 116.3 878.5 116.7L900 117L900 0L878.5 0C857 0 814 0 771.2 0C728.3 0 685.7 0 642.8 0C600 0 557 0 514.2 0C471.3 0 428.7 0 385.8 0C343 0 300 0 257.2 0C214.3 0 171.7 0 128.8 0C86 0 43 0 21.5 0L0 0Z" fill="#90d735"></path><path d="M0 42L21.5 39.5C43 37 86 32 128.8 35.5C171.7 39 214.3 51 257.2 54.7C300 58.3 343 53.7 385.8 54.5C428.7 55.3 471.3 61.7 514.2 61.8C557 62 600 56 642.8 55.8C685.7 55.7 728.3 61.3 771.2 57C814 52.7 857 38.3 878.5 31.2L900 24L900 0L878.5 0C857 0 814 0 771.2 0C728.3 0 685.7 0 642.8 0C600 0 557 0 514.2 0C471.3 0 428.7 0 385.8 0C343 0 300 0 257.2 0C214.3 0 171.7 0 128.8 0C86 0 43 0 21.5 0L0 0Z" fill="#faf069"></path></svg>