<svg id="visual" viewBox="0 0 900 600" width="900" height="600" xmlns="http://www.w3.org/2000/svg" xmlns:xlink="http://www.w3.org/1999/xlink" version="1.1"><g stroke-width="1" stroke-linejoin="bevel"><path d="M466 366L390 427L462 465Z" fill="#b251a0" stroke="#b251a0"></path><path d="M390 427L393 484L462 465Z" fill="#b251a0" stroke="#b251a0"></path><path d="M462 465L571 405L466 366Z" fill="#f2cc0f" stroke="#f2cc0f"></path><path d="M507 262L365 295L466 366Z" fill="#ff666b" stroke="#ff666b"></path><path d="M466 366L365 295L390 427Z" fill="#ff8a47" stroke="#ff8a47"></path><path d="M390 427L335 516L393 484Z" fill="#ff8a47" stroke="#ff8a47"></path><path d="M274 405L335 516L390 427Z" fill="#ffb620" stroke="#ffb620"></path><path d="M467 600L572 513L462 465Z" fill="#b251a0" stroke="#b251a0"></path><path d="M437 600L462 465L393 484Z" fill="#ffb620" stroke="#ffb620"></path><path d="M462 465L572 513L571 405Z" fill="#e2538a" stroke="#e2538a"></path><path d="M571 405L507 262L466 366Z" fill="#f35a7b" stroke="#f35a7b"></path><path d="M365 295L274 405L390 427Z" fill="#ffb620" stroke="#ffb620"></path><path d="M335 516L437 600L393 484Z" fill="#9453a6" stroke="#9453a6"></path><path d="M437 600L467 600L462 465Z" fill="#f35a7b" stroke="#f35a7b"></path><path d="M716 373L619 324L571 405Z" fill="#ff666b" stroke="#ff666b"></path><path d="M571 405L619 324L507 262Z" fill="#ff9f34" stroke="#ff9f34"></path><path d="M507 262L382 212L365 295Z" fill="#ff666b" stroke="#ff666b"></path><path d="M365 295L272 266L274 405Z" fill="#ff666b" stroke="#ff666b"></path><path d="M180 600L333 600L335 516Z" fill="#b251a0" stroke="#b251a0"></path><path d="M335 516L333 600L437 600Z" fill="#f2cc0f" stroke="#f2cc0f"></path><path d="M382 212L272 266L365 295Z" fill="#cc5197" stroke="#cc5197"></path><path d="M467 600L591 600L572 513Z" fill="#ff8a47" stroke="#ff8a47"></path><path d="M572 513L697 500L571 405Z" fill="#e2538a" stroke="#e2538a"></path><path d="M272 266L207 308L274 405Z" fill="#b251a0" stroke="#b251a0"></path><path d="M274 405L182 499L335 516Z" fill="#ff9f34" stroke="#ff9f34"></path><path d="M618 161L535 165L507 262Z" fill="#9453a6" stroke="#9453a6"></path><path d="M507 262L535 165L382 212Z" fill="#ff765a" stroke="#ff765a"></path><path d="M382 212L270 210L272 266Z" fill="#b251a0" stroke="#b251a0"></path><path d="M272 266L169 236L207 308Z" fill="#9453a6" stroke="#9453a6"></path><path d="M339 60L270 210L382 212Z" fill="#cc5197" stroke="#cc5197"></path><path d="M685 600L697 500L572 513Z" fill="#e2538a" stroke="#e2538a"></path><path d="M207 308L175 376L274 405Z" fill="#f35a7b" stroke="#f35a7b"></path><path d="M175 376L182 499L274 405Z" fill="#ff9f34" stroke="#ff9f34"></path><path d="M697 500L716 373L571 405Z" fill="#ff8a47" stroke="#ff8a47"></path><path d="M619 324L618 161L507 262Z" fill="#ff666b" stroke="#ff666b"></path><path d="M716 373L707 311L619 324Z" fill="#ff765a" stroke="#ff765a"></path><path d="M591 600L685 600L572 513Z" fill="#f35a7b" stroke="#f35a7b"></path><path d="M811 438L770 328L716 373Z" fill="#ff765a" stroke="#ff765a"></path><path d="M681 198L618 161L619 324Z" fill="#e2538a" stroke="#e2538a"></path><path d="M65 600L180 600L182 499Z" fill="#f2cc0f" stroke="#f2cc0f"></path><path d="M182 499L180 600L335 516Z" fill="#ff9f34" stroke="#ff9f34"></path><path d="M707 311L681 198L619 324Z" fill="#f2cc0f" stroke="#f2cc0f"></path><path d="M207 308L92 262L175 376Z" fill="#b251a0" stroke="#b251a0"></path><path d="M175 376L85 460L182 499Z" fill="#9453a6" stroke="#9453a6"></path><path d="M270 210L169 236L272 266Z" fill="#ff666b" stroke="#ff666b"></path><path d="M563 85L460 82L535 165Z" fill="#ff8a47" stroke="#ff8a47"></path><path d="M535 165L460 82L382 212Z" fill="#cc5197" stroke="#cc5197"></path><path d="M270 210L237 68L169 236Z" fill="#ffb620" stroke="#ffb620"></path><path d="M811 438L716 373L697 500Z" fill="#ff765a" stroke="#ff765a"></path><path d="M716 373L770 328L707 311Z" fill="#e2538a" stroke="#e2538a"></path><path d="M707 311L791 187L681 198Z" fill="#e2538a" stroke="#e2538a"></path><path d="M685 600L768 537L697 500Z" fill="#f2cc0f" stroke="#f2cc0f"></path><path d="M460 82L373 71L382 212Z" fill="#ffb620" stroke="#ffb620"></path><path d="M618 161L563 85L535 165Z" fill="#b251a0" stroke="#b251a0"></path><path d="M418 0L339 60L373 71Z" fill="#ff9f34" stroke="#ff9f34"></path><path d="M584 0L563 85L711 64Z" fill="#b251a0" stroke="#b251a0"></path><path d="M92 262L83 390L175 376Z" fill="#cc5197" stroke="#cc5197"></path><path d="M83 390L85 460L175 376Z" fill="#b251a0" stroke="#b251a0"></path><path d="M768 537L811 438L697 500Z" fill="#f2cc0f" stroke="#f2cc0f"></path><path d="M418 0L373 71L460 82Z" fill="#ff9f34" stroke="#ff9f34"></path><path d="M373 71L339 60L382 212Z" fill="#b251a0" stroke="#b251a0"></path><path d="M685 600L769 600L768 537Z" fill="#ff765a" stroke="#ff765a"></path><path d="M900 484L900 404L811 438Z" fill="#9453a6" stroke="#9453a6"></path><path d="M169 236L92 262L207 308Z" fill="#cc5197" stroke="#cc5197"></path><path d="M104 185L92 262L169 236Z" fill="#9453a6" stroke="#9453a6"></path><path d="M339 60L237 68L270 210Z" fill="#ff8a47" stroke="#ff8a47"></path><path d="M237 68L104 185L169 236Z" fill="#b251a0" stroke="#b251a0"></path><path d="M524 0L418 0L460 82Z" fill="#ff8a47" stroke="#ff8a47"></path><path d="M339 60L291 0L237 68Z" fill="#cc5197" stroke="#cc5197"></path><path d="M770 328L791 187L707 311Z" fill="#ff8a47" stroke="#ff8a47"></path><path d="M681 198L711 64L618 161Z" fill="#f2cc0f" stroke="#f2cc0f"></path><path d="M563 85L524 0L460 82Z" fill="#9453a6" stroke="#9453a6"></path><path d="M900 220L791 187L770 328Z" fill="#b251a0" stroke="#b251a0"></path><path d="M0 520L65 600L85 460Z" fill="#f35a7b" stroke="#f35a7b"></path><path d="M85 460L65 600L182 499Z" fill="#e2538a" stroke="#e2538a"></path><path d="M0 426L85 460L83 390Z" fill="#ff666b" stroke="#ff666b"></path><path d="M584 0L524 0L563 85Z" fill="#ff9f34" stroke="#ff9f34"></path><path d="M711 64L563 85L618 161Z" fill="#ff666b" stroke="#ff666b"></path><path d="M418 0L291 0L339 60Z" fill="#f2cc0f" stroke="#f2cc0f"></path><path d="M237 68L138 64L104 185Z" fill="#f35a7b" stroke="#f35a7b"></path><path d="M791 187L711 64L681 198Z" fill="#f2cc0f" stroke="#f2cc0f"></path><path d="M0 276L0 426L83 390Z" fill="#9453a6" stroke="#9453a6"></path><path d="M0 276L83 390L92 262Z" fill="#ffb620" stroke="#ffb620"></path><path d="M0 426L0 520L85 460Z" fill="#ffb620" stroke="#ffb620"></path><path d="M900 484L811 438L768 537Z" fill="#ff8a47" stroke="#ff8a47"></path><path d="M811 438L900 404L770 328Z" fill="#e2538a" stroke="#e2538a"></path><path d="M900 600L900 484L768 537Z" fill="#cc5197" stroke="#cc5197"></path><path d="M0 167L92 262L104 185Z" fill="#9453a6" stroke="#9453a6"></path><path d="M0 167L0 276L92 262Z" fill="#e2538a" stroke="#e2538a"></path><path d="M191 0L138 64L237 68Z" fill="#f35a7b" stroke="#f35a7b"></path><path d="M900 404L900 318L770 328Z" fill="#ff765a" stroke="#ff765a"></path><path d="M764 0L691 0L711 64Z" fill="#ffb620" stroke="#ffb620"></path><path d="M0 520L0 600L65 600Z" fill="#ff9f34" stroke="#ff9f34"></path><path d="M783 69L711 64L791 187Z" fill="#cc5197" stroke="#cc5197"></path><path d="M711 64L691 0L584 0Z" fill="#cc5197" stroke="#cc5197"></path><path d="M291 0L191 0L237 68Z" fill="#b251a0" stroke="#b251a0"></path><path d="M900 119L783 69L791 187Z" fill="#b251a0" stroke="#b251a0"></path><path d="M769 600L900 600L768 537Z" fill="#e2538a" stroke="#e2538a"></path><path d="M900 318L900 220L770 328Z" fill="#f35a7b" stroke="#f35a7b"></path><path d="M0 77L0 167L104 185Z" fill="#ff765a" stroke="#ff765a"></path><path d="M0 77L104 185L138 64Z" fill="#ff666b" stroke="#ff666b"></path><path d="M191 0L135 0L138 64Z" fill="#cc5197" stroke="#cc5197"></path><path d="M900 0L764 0L783 69Z" fill="#b251a0" stroke="#b251a0"></path><path d="M783 69L764 0L711 64Z" fill="#ff9f34" stroke="#ff9f34"></path><path d="M900 220L900 119L791 187Z" fill="#f2cc0f" stroke="#f2cc0f"></path><path d="M0 0L0 77L138 64Z" fill="#ff8a47" stroke="#ff8a47"></path><path d="M135 0L0 0L138 64Z" fill="#cc5197" stroke="#cc5197"></path><path d="M900 119L900 0L783 69Z" fill="#ff9f34" stroke="#ff9f34"></path></g></svg>